<svg width="31" height="16" viewBox="0 0 31 16" fill="none" xmlns="http://www.w3.org/2000/svg">
<rect width="30.9102" height="15.3789" rx="7.68945" fill="#FFE2E5"/>
<path d="M15.2383 7.97656H11.582C11.1836 7.97656 10.7812 7.98438 10.375 8C10.3984 7.78125 10.3984 7.5625 10.375 7.34375C10.7812 7.36719 11.1836 7.37891 11.582 7.37891H19.4453C19.8516 7.37891 20.2578 7.36719 20.6641 7.34375C20.6406 7.5625 20.6406 7.78125 20.6641 8C20.2578 7.98438 19.8516 7.97656 19.4453 7.97656H16.0469V9.62891H18.3438C18.7422 9.62891 19.1445 9.62109 19.5508 9.60547C19.5273 9.82422 19.5273 10.043 19.5508 10.2617C19.1445 10.2383 18.7422 10.2266 18.3438 10.2266H16.0469V11.8906C16.2422 11.9219 16.4609 11.9473 16.7031 11.9668C16.9453 11.9863 17.1484 12 17.3125 12.0078L18.6836 12.0664C19.8086 12.1211 20.5508 12.1484 20.9102 12.1484C20.6992 12.3984 20.5938 12.6836 20.5938 13.0039L17.8398 12.8867C17.0664 12.8555 16.332 12.7852 15.6367 12.6758C14.9961 12.5664 14.418 12.3789 13.9023 12.1133C13.4258 11.8398 13.0273 11.5 12.707 11.0938C12.1992 12.1797 11.4453 12.9414 10.4453 13.3789C10.3672 13.0977 10.2188 12.8672 10 12.6875C11.0156 12.2812 11.6914 11.5391 12.0273 10.4609C12.2383 9.83594 12.3789 9.14453 12.4492 8.38672C12.7383 8.47266 13.0312 8.53125 13.3281 8.5625C13.2891 9.10938 13.1992 9.63672 13.0586 10.1445C13.4648 10.9414 14.1914 11.4727 15.2383 11.7383V7.97656ZM13.1523 6.79297H12.3438V2H19.082V6.79297H18.2734V6.19531H13.1523V6.79297ZM18.2734 3.80469V2.59766H13.1523C13.1523 2.99609 13.1523 3.39844 13.1523 3.80469H18.2734ZM18.2734 4.40234H13.1523V5.59766H18.2734V4.40234Z" fill="#EB5757"/>
</svg>
